<svg id="Layer_1" data-name="Layer 1" xmlns="http://www.w3.org/2000/svg" viewBox="0 0 188.9 42.75">

<defs>
    <style>
        .cls-1{fill:#dd1835;}
    </style>
</defs>

<path class="cls-1" d="M86.42,265.79c-7.39,3.93-10,19.32-10,19.32-.91,4.3-2.22,6.38-5.62,6.38-2.82,0-4.53-1.8-3.9-6.38,0,0,1.5-9.5,3.34-14.54a10,10,0,0,0-6.37,3.36c-2.94,3.21-6.84,4.44-8,4.94,5.12-1.81,3.19,6.75,3.19,6.75-1,7,2.53,11.42,11.07,11.42,9.46,0,12.48-5.86,13.25-11.42C83.37,285.62,76.36,272.43,86.42,265.79Zm11.24-11a2.67,2.67,0,0,0,.07-.47C97.71,254.45,97.69,254.6,97.66,254.76ZM83.78,284.47c1.31-13,12-15.53,13.88-29.71C93.22,266.28,77.67,268.23,83.78,284.47Z" transform="translate(-55.86 -254.29)"/><path class="cls-1" d="M89.18,295.63s3.08-12.64,4.43-18.05,9-8.59,9-8.59l-.91,3.7a9.66,9.66,0,0,1,3.71-3.21,11.5,11.5,0,0,1,4.73-.9l-1.49,6.09a10.83,10.83,0,0,0-1.7-.14h-.49a6.6,6.6,0,0,0-3.9,1.09,5.45,5.45,0,0,0-1.73,1.92,18,18,0,0,0-1.25,3.78l-1.94,7.91C96,295.53,89.18,295.63,89.18,295.63Z" transform="translate(-55.86 -254.29)"/><path class="cls-1" d="M122.91,262.53,121.32,269a11.54,11.54,0,0,0-7.87,4.22C115.62,264.34,122.91,262.53,122.91,262.53Zm-11.39,18.53c1.65-6.72,8.51-6.83,8.51-6.83l-3.68,15c-1.56,6.34-8.41,6.4-8.41,6.4Z" transform="translate(-55.86 -254.29)"/><path class="cls-1" d="M129.26,287.54q-.58,2.38.09,3.09a2.71,2.71,0,0,0,2.05.71,3.81,3.81,0,0,0,2.78-.95,6.93,6.93,0,0,0,1.58-3.31l.1-.44h6.84l-.22.9c-.81,3.27-2.37,5.51-4.69,6.7a14.73,14.73,0,0,1-7.51,1.79c-3.48,0-5.24-.66-6.73-2s-1.71-4.1-.69-8.28l1.61-6.55q1.43-5.77,4.47-8.2c2.06-1.61,4.24-2.42,8-2.42,4.06,0,6,.76,7.21,2.29s1.32,4.52.22,9l-.94,3.83H130.2Zm2-7.93h6.38l.78-3.18a2.76,2.76,0,0,0-.24-2.25,2.31,2.31,0,0,0-2.15-.9,4.23,4.23,0,0,0-2.71.76,4.54,4.54,0,0,0-1.3,2.47Z" transform="translate(-55.86 -254.29)"/><path class="cls-1" d="M146.26,295.63,154,264c1.62-6.61,8.48-6.7,8.48-6.7l-7.84,31.94C153.11,295.57,146.26,295.63,146.26,295.63Z" transform="translate(-55.86 -254.29)"/><path class="cls-1" d="M160,286.75h7.16l-.43,1.76c-.33,1.34-.3,2.25.09,2.72a2.23,2.23,0,0,0,1.76.7,3.75,3.75,0,0,0,2.24-.75,4,4,0,0,0,1.41-2.29,2.78,2.78,0,0,0-.87-3.14,33.49,33.49,0,0,0-3.68-2.07,18.11,18.11,0,0,1-3.21-2.12c-1.68-1.19-2.21-3.05-1.59-5.56a8.59,8.59,0,0,1,3.88-5.57,13.58,13.58,0,0,1,7.55-1.85c3.42,0,5.41.61,6.7,1.82s1.65,2.93,1.09,5.22l-.36,1.44h-7.19l.41-1.66c.44-1.81-.07-2.71-1.53-2.71h-.06a2.9,2.9,0,0,0-2.22.78,4.06,4.06,0,0,0-.91,1.69,2.53,2.53,0,0,0,.85,2.77,18.18,18.18,0,0,0,3,1.68,26.38,26.38,0,0,1,3.65,2.28c2,1.3,2.6,3.37,1.9,6.19a9.45,9.45,0,0,1-4.1,6,13.89,13.89,0,0,1-7.91,2h-.41c-3.05,0-4.92-.57-6.41-1.73s-1.87-3.14-1.19-5.89Z" transform="translate(-55.86 -254.29)"/><path class="cls-1" d="M185.06,284.66l1.52-6.19q1.39-5.73,4.69-7.8a13.63,13.63,0,0,1,7.74-2.09h.55a9.22,9.22,0,0,1,6.41,2q2.39,2,.94,7.88l-1.52,6.19-.53,2.14c-.84,3.44-2.4,5.84-4.66,7.2a13.84,13.84,0,0,1-7.61,2c-3.83,0-6-.76-7.3-2.3s-1.5-3.93-.71-7.12Zm6.82,2.09,0,.13c-.46,1.89-.49,3.1-.07,3.64a1.8,1.8,0,0,0,1.61.82h.21a3.07,3.07,0,0,0,2.26-.87,6.86,6.86,0,0,0,1.61-3.42l.07-.3,2.2-9c.42-1.68.47-2.85.16-3.5s-.85-1-2-1a3,3,0,0,0-2.25,1,7.59,7.59,0,0,0-1.56,3.48Z" transform="translate(-55.86 -254.29)"/><path class="cls-1" d="M216.62,269l1.06-4.36a11.2,11.2,0,0,1,3.85-5.65,12.89,12.89,0,0,1,6.63-2h3.92a20.47,20.47,0,0,1-3.17,3.8,29.79,29.79,0,0,1-3.32,1.88c-.6.4-1.36,3.14-1.6,4.13l-.54,2.18h4.36l-1.15,4.7H222.3l-3.82,15.54c-1.56,6.38-8.4,6.4-8.4,6.4l5.38-21.94h-4.93C211.67,269.07,216.62,269,216.62,269Z" transform="translate(-55.86 -254.29)"/><path class="cls-1" d="M227.91,273.69l1.15-4.7H233l.23-.94c1.51-6.18,8.4-6.36,8.4-6.36l-1.8,7.3h4.94c-1.16,4.73-6.09,4.7-6.09,4.7l-3.7,15-.09.38c-.36,1.49.24,2.23,1.8,2.23h.17c.55,0,5.54-.86,6.54-1.06,0,0-6.27,2.82-8.1,5.74h-1.16q-3.88,0-5.49-1.46t-.76-4.78l.09-.38,3.86-15.72Z" transform="translate(-55.86 -254.29)"/></svg>